<?xml version="1.0" encoding="UTF-8" standalone="no"?>
<!-- Created with Inkscape (http://www.inkscape.org/) -->

<svg
   xmlns:dc="http://purl.org/dc/elements/1.1/"
   xmlns:cc="http://creativecommons.org/ns#"
   xmlns:rdf="http://www.w3.org/1999/02/22-rdf-syntax-ns#"
   xmlns:svg="http://www.w3.org/2000/svg"
   xmlns="http://www.w3.org/2000/svg"
   xmlns:sodipodi="http://sodipodi.sourceforge.net/DTD/sodipodi-0.dtd"
   xmlns:inkscape="http://www.inkscape.org/namespaces/inkscape"
   version="1.1"
   id="svg8295"
   width="42.068748mm"
   height="63.5mm"
   viewBox="0 0 159 240"
   sodipodi:docname="acshikh.svg"
   inkscape:version="0.92.3 (2405546, 2018-03-11)">
  <metadata
     id="metadata8301">
    <rdf:RDF>
      <cc:Work
         rdf:about="">
        <dc:format>image/svg+xml</dc:format>
        <dc:type
           rdf:resource="http://purl.org/dc/dcmitype/StillImage" />
        <dc:title></dc:title>
      </cc:Work>
    </rdf:RDF>
  </metadata>
  <defs
     id="defs8299" />
  <sodipodi:namedview
     pagecolor="#ffffff"
     bordercolor="#666666"
     borderopacity="1"
     objecttolerance="10"
     gridtolerance="10"
     guidetolerance="10"
     inkscape:pageopacity="1"
     inkscape:pageshadow="2"
     inkscape:window-width="1981"
     inkscape:window-height="1097"
     id="namedview8297"
     showgrid="false"
     inkscape:zoom="3.8833333"
     inkscape:cx="60.148793"
     inkscape:cy="161.90235"
     inkscape:window-x="67"
     inkscape:window-y="27"
     inkscape:window-maximized="1"
     inkscape:current-layer="svg8295"
     inkscape:document-units="mm"
     units="mm" />
  <path
     style="fill:#000000;stroke-width:0.50955647"
     d="m 22.297122,75.816719 c 0.09061,-0.46041 0.623353,-1.09099 1.183865,-1.40128 0.560512,-0.31029 1.133763,-0.68102 1.273891,-0.82382 0.140128,-0.14282 1.114655,-0.71089 2.165616,-1.26239 1.05096,-0.55149 1.910836,-1.15121 1.910836,-1.3327 0,-0.18149 0.693765,-0.46874 1.541698,-0.63833 1.736289,-0.34725 4.283573,-2.6175 3.805271,-3.39141 -0.379725,-0.6144 2.74435,-5.0901 3.552938,-5.0901 0.315833,0 0.553167,-0.63057 0.527408,-1.40128 -0.02576,-0.7707 0.218579,-2.59852 0.542973,-4.06182 0.324394,-1.4633 0.476619,-2.77373 0.33828,-2.91207 -0.138343,-0.13834 -1.425187,0.74105 -2.859656,1.95419 -3.488974,2.95068 -4.393177,3.36364 -7.364815,3.36364 -5.614337,0 -11.233173,-4.465 -13.893381,-11.04035 -0.812576,-2.00848 -1.477411,-3.99575 -1.477411,-4.41615 0,-0.42041 -0.268585,-0.85391 -0.596856,-0.96333 -0.328272,-0.10943 -0.632518,-0.64446 -0.676103,-1.18897 -0.04359,-0.5445 -0.370253,-2.5168 -0.725931,-4.38287 -0.507433,-2.66227 -0.867163,-3.45052 -1.6705864,-3.66062 -1.519625,-0.39739 -0.825595,-1.58505 1.0335474,-1.76865 1.770721,-0.17488 1.755731,-0.15931 1.29908,-1.34932 -0.290966,-0.75825 -0.398297,-0.7551 -1.273891,0.0373 -0.918854,0.83155 -0.9561554,0.79151 -0.9561554,-1.02635 0,-1.04041 -0.263861,-3.489396 -0.586357,-5.442187 -0.797919,-4.831583 -0.183818,-6.598446 4.1866454,-12.045635 3.179865,-3.9632709 3.890805,-4.5639019 6.729231,-5.6851269 2.504313,-0.989245 3.952505,-1.229288 6.865946,-1.138055 4.449919,0.139347 6.169236,0.930514 7.518025,3.459524 0.724227,1.35794 1.461443,2.0012319 2.547783,2.2231859 4.942937,1.009911 5.842355,3.340171 7.465848,19.342884 0.150595,1.4844 -0.643733,6.79755 -1.160647,7.76341 -0.288078,0.53828 -0.405949,1.28574 -0.261938,1.66103 0.144016,0.3753 -0.04387,0.79966 -0.417515,0.94305 -0.374815,0.14383 -0.84378,1.47617 -1.04614,2.97212 -0.201728,1.49128 -0.917487,4.18274 -1.590575,5.98101 l -1.223795,3.26958 1.02038,1.08614 c 1.226003,1.30503 1.936488,4.30233 1.136963,4.79646 -0.369373,0.22829 -0.390789,0.59668 -0.06366,1.09493 0.416761,0.63476 0.64146,0.57418 1.452858,-0.39166 l 0.959851,-1.14255 0.176302,2.52168 c 0.163756,2.34226 -0.34525,5.8298 -0.597613,4.09464 -0.06114,-0.42038 -0.07395,-1.05096 -0.02849,-1.40128 0.174636,-1.34484 -0.917084,-0.55961 -1.235113,0.88838 -0.289627,1.31864 -0.433195,1.42714 -1.059603,0.80073 -0.398493,-0.39853 -0.724559,-1.31422 -0.724559,-2.03488 0,-0.72066 -0.2293,-1.31028 -0.509556,-1.31028 -0.280256,0 -0.509557,0.4586 -0.509557,1.01911 0,0.64467 -0.339704,1.01911 -0.924578,1.01911 -0.559011,0 -1.358582,0.81309 -2.022242,2.05643 l -1.097663,2.05644 1.289057,0.58733 c 1.007992,0.45928 1.224169,0.84587 0.991463,1.77304 -0.401969,1.60157 -1.840862,3.20833 -2.873138,3.20833 -0.464044,0 -1.221996,0.51593 -1.684337,1.14651 l -0.840621,1.1465 0.30325,-1.1465 c 0.219615,-0.8303 0.08298,-1.14651 -0.495422,-1.14651 -0.472657,0 -0.798673,0.43855 -0.798673,1.07436 0,0.90076 -0.212685,1.02097 -1.316275,0.74399 -1.050529,-0.26367 -1.371154,-0.12051 -1.588099,0.70909 -0.149504,0.5717 -0.489834,1.03946 -0.756289,1.03946 -0.266455,0 -0.33891,-0.4586 -0.16101,-1.01911 0.221992,-0.69944 0.09157,-1.01912 -0.415789,-1.01912 -0.406583,0 -0.859169,0.45861 -1.005746,1.01912 -0.349621,1.33695 -3.591412,1.51418 -3.329226,0.182 z m 12.876767,-4.30198 c -0.164065,-0.26546 -0.515496,-0.34842 -0.780958,-0.18435 -0.265463,0.16406 -0.348424,0.51549 -0.18436,0.78095 0.164065,0.26547 0.515496,0.34843 0.780959,0.18436 0.265462,-0.16406 0.348424,-0.51549 0.184359,-0.78096 z m 5.377241,-11.16672 c 0,-0.28025 -0.242834,-0.50955 -0.539631,-0.50955 -0.296796,0 -0.397912,0.2293 -0.224704,0.50955 0.173209,0.28026 0.416043,0.50956 0.539631,0.50956 0.123587,0 0.224704,-0.2293 0.224704,-0.50956 z m -11.892554,-7.23763 c 0.357504,-0.27509 0.722242,-0.24379 0.921797,0.0791 0.566523,0.91665 1.79874,0.58454 1.79874,-0.48481 0,-0.67941 0.339704,-1.01912 1.019113,-1.01912 0.737978,0 1.019113,-0.3397 1.019113,-1.23143 0,-0.67728 0.244092,-1.31279 0.542427,-1.41223 0.298335,-0.0995 0.674828,-1.16793 0.836651,-2.37441 0.587413,-2.93213 -3.49919,-3.66053 -5.45553,-3.92501 -1.95218,-0.24643 -5.615272,0.89023 -6.114678,1.34611 -0.255156,0.23291 -0.629377,0.47736 -1.226788,1.3107 -0.887771,1.23837 -1.018811,1.23597 -0.09913,2.94371 0.917628,1.70393 0.971571,1.72516 3.803547,1.49667 1.579995,-0.12748 3.617945,-0.32313 4.528777,-0.4348 0.910832,-0.11166 1.656058,-0.12154 1.656058,-0.0219 0,0.0996 0.153617,0.58139 0.341372,1.07067 0.231241,0.6026 0.150867,0.77186 -0.249135,0.52464 -0.324779,-0.20072 -1.340256,-0.009 -2.256616,0.42567 -1.267477,0.60145 -2.078638,0.67231 -3.390307,0.29613 -2.397838,-0.68769 -2.982274,-0.10421 -1.266202,1.26414 1.380506,1.10078 2.301502,1.13828 3.590795,0.14622 z m -9.754295,-8.5575 c 0.09014,-1.22349 0.423101,-1.54605 3.975483,-3.85128 l 1.946558,-1.26317 1.292627,1.01678 c 0.985517,0.7752 1.520612,0.89476 2.252212,0.50322 0.527771,-0.28245 0.90454,-0.77971 0.837266,-1.10502 -0.152109,-0.73552 1.677628,-1.18628 2.109627,-0.51971 0.173711,0.26803 1.405944,0.96601 2.738296,1.55107 1.574942,0.69157 2.595597,1.51912 2.917338,2.36536 0.272183,0.7159 0.610544,1.30163 0.751913,1.30163 0.235202,0 2.470546,-3.99539 2.565782,-4.58601 0.02257,-0.14013 0.296063,-0.71338 0.607708,-1.27389 2.17231,-3.90704 1.820716,-8.59982 -0.659703,-8.80511 -0.963011,-0.0797 -1.248917,0.0887 -1.046481,0.61619 0.427013,1.11278 -1.078882,2.14449 -2.123996,1.45517 -0.466956,-0.30799 -0.791686,-0.81062 -0.721622,-1.11696 0.07006,-0.30633 -0.101912,-0.55697 -0.382168,-0.55697 -0.280256,0 -0.509556,0.34395 -0.509556,0.76433 0,0.42039 -0.210547,0.76434 -0.467882,0.76434 -1.077264,0 -2.079901,-0.67045 -2.079901,-1.3908 0,-0.66069 -0.12235,-0.67122 -0.847199,-0.0729 -0.726444,0.59965 -0.811493,0.59039 -0.596689,-0.065 0.17493,-0.53373 1.122357,-0.81044 3.140204,-0.91715 2.825253,-0.14941 3.777579,-0.78097 1.997969,-1.325 -1.294213,-0.39565 -6.236562,-0.19941 -5.966897,0.23692 0.125693,0.20337 -0.0914,0.49254 -0.482438,0.6426 -0.598143,0.22953 -0.577462,0.64966 0.130316,2.64744 l 0.841287,2.37463 3.469431,-0.19201 c 2.238441,-0.12388 3.624742,-0.44331 3.907158,-0.90026 0.24075,-0.38955 0.923133,-0.78234 1.516405,-0.87288 0.932371,-0.14229 1.005171,-0.0273 0.536751,0.84798 -0.635998,1.18837 -1.573483,1.4469 -6.365069,1.7553 -4.096933,0.26368 -5.135916,-0.30428 -5.659202,-3.09364 -0.252307,-1.34491 -0.569266,-1.71349 -1.47351,-1.71349 -0.934746,0 -1.212339,0.36044 -1.471641,1.91084 -0.175772,1.05096 -0.52111,2.22315 -0.767418,2.60486 -0.52853,0.81908 -3.913925,1.54562 -7.347241,1.57679 -2.19196,0.0199 -2.533639,-0.13518 -3.312117,-1.50326 -1.004973,-1.76612 -1.63236,-1.96526 -1.63236,-0.51814 0,1.30391 2.542903,7.69589 3.412091,8.57683 0.365399,0.37034 0.664361,1.06971 0.664361,1.55415 0,1.03108 1.021093,2.18801 1.724251,1.95362 0.268717,-0.0896 0.528842,-0.70941 0.578056,-1.37743 z m 11.220312,-7.28861 c -0.506964,-0.77373 -0.812854,-1.51567 -0.679754,-1.64877 0.424108,-0.42411 2.047866,1.71647 1.820183,2.39952 -0.137578,0.41274 -0.560511,0.13432 -1.140429,-0.75075 z m -6.286986,-3.45528 c 0.476397,-0.56475 0.737369,-1.3625 0.579938,-1.77275 -0.15743,-0.41026 -0.02128,-1.06517 0.302546,-1.45537 0.471683,-0.56834 0.259169,-0.87387 -1.068525,-1.53621 -1.372596,-0.68474 -2.10719,-0.73338 -4.276072,-0.28312 -2.229181,0.46277 -2.81664,0.84588 -3.948887,2.57525 -0.731567,1.11737 -1.205472,2.35642 -1.053121,2.75344 0.617907,1.61024 8.055004,1.38924 9.464121,-0.28124 z m -7.745189,-2.02214 c 0,-0.62845 3.099569,-2.01223 4.50725,-2.01223 0.535197,0 1.262896,0.3492 1.617109,0.776 0.538491,0.64884 0.506966,0.72341 -0.192386,0.45504 -0.56167,-0.21553 -0.836408,-0.052 -0.836408,0.49789 0,0.98652 -2.313462,1.13899 -2.760098,0.18191 -0.237793,-0.50956 -0.356689,-0.50956 -0.594482,0 -0.360152,0.77175 -1.740985,0.85217 -1.740985,0.10139 z m 27.166938,-3.22403 c 0.270758,-0.70558 -0.520782,-1.84554 -1.281468,-1.84554 -0.224205,0 -0.407645,0.57325 -0.407645,1.27389 0,1.36335 1.226079,1.7783 1.689113,0.57165 z M 28.83133,27.841269 c 0,-0.66467 0.77059,-1.15154 2.822741,-1.78345 3.458329,-1.06491 4.840499,-1.092233 6.124496,-0.12107 0.962492,0.728 2.772563,1.05799 2.772563,0.50547 0,-0.1513 -0.431121,-1.125824 -0.958048,-2.165619 -0.526927,-1.039796 -1.123907,-2.922389 -1.326619,-4.183542 -0.544533,-3.387758 -1.637675,-5.361647 -3.535209,-6.383537 -1.440441,-0.775728 -2.507767,-0.866394 -7.234337,-0.61453 -3.04953,0.162499 -6.118763,0.515266 -6.82052,0.783926 -1.692055,0.647785 -5.605722,7.501395 -6.223033,10.897767 -0.568551,3.128105 0.04632,4.146345 1.635408,2.708245 0.744475,-0.67374 1.7965,-0.93203 3.706324,-0.90997 3.91414,0.0452 4.564058,0.21279 4.834347,1.24637 0.350745,1.34125 4.201887,1.35952 4.201887,0.0199 z m -8.809199,45.57497 c -0.222734,-0.56648 -0.675651,-0.82785 -1.131447,-0.65294 -0.522266,0.20041 -0.76004,-0.0371 -0.76004,-0.75917 0,-0.62229 -0.415607,-1.15951 -1.019113,-1.31733 -0.564036,-0.1475 -1.019113,-0.69505 -1.019113,-1.22619 0,-0.52782 -0.286626,-0.96281 -0.636946,-0.96664 -0.35032,-0.004 -1.152871,-0.14522 -1.783447,-0.31421 -0.927685,-0.24861 -1.146503,-0.099 -1.146503,0.7839 0,0.70243 -0.46565,1.2682 -1.307063,1.5881 -2.8712254,1.09164 -2.9733624,0.37461 -0.348995,-2.45004 1.05096,-1.13116 2.366804,-2.1373 2.924098,-2.23586 1.324279,-0.2342 1.69648,-1.94807 0.425382,-1.95874 -0.78802,-0.007 -0.813034,-0.084 -0.164752,-0.50956 0.587758,-0.38584 0.61869,-0.59606 0.133896,-0.90998 -0.452919,-0.29327 -0.499361,-0.86526 -0.16493,-2.03135 0.256542,-0.89451 0.269443,-1.74431 0.02874,-1.89307 -0.240223,-0.14847 -0.327895,-0.87035 -0.194824,-1.60419 0.355484,-1.96037 1.695328,-4.33327 2.252372,-3.98899 0.26575,0.16424 0.468698,2.67066 0.450994,5.56983 -0.04278,7.00536 1.191965,9.52254 6.028823,12.29048 2.125218,1.21619 2.097861,1.74709 -0.09003,1.74709 -1.254736,0 -1.796683,0.25093 -1.925891,0.89172 -0.166099,0.82375 -0.208122,0.81972 -0.551215,-0.0529 z m -2.306584,-5.26376 c -0.368431,-0.14739 -0.911689,-0.87452 -1.20724,-1.61583 -0.328955,-0.8251 -0.632901,-1.08937 -0.783696,-0.68141 -0.28041,0.75863 1.259242,2.66628 2.102841,2.60546 0.306883,-0.0221 0.256526,-0.16082 -0.111905,-0.30822 z m 26.357199,5.09192 c -0.08747,-0.79639 0.123955,-5.28832 0.322911,-6.86036 0.394407,-3.11642 0.741481,-2.06011 0.741481,2.25667 0,2.41234 -0.2293,4.52779 -0.509556,4.701 -0.280256,0.17321 -0.529934,0.12942 -0.554836,-0.0973 z M 5.9012876,68.576959 c 0,-2.28226 3.795685,-10.5906 5.1757744,-11.3292 1.600145,-0.85637 1.684497,-0.1946 0.280552,2.20105 -0.710449,1.21229 -1.4543074,3.0708 -1.6530194,4.13002 -0.251371,1.33992 -0.574845,1.84392 -1.063188,1.65653 -0.386041,-0.14814 -0.701893,-0.0472 -0.701893,0.22422 0,0.27146 0.2293,0.49356 0.509556,0.49356 0.280257,0 0.509557,0.37203 0.509557,0.82673 0,0.67299 -0.140565,0.71007 -0.75589,0.19939 -0.626478,-0.51992 -0.842414,-0.39975 -1.261279,0.70195 -0.492499,1.29537 -1.04017,1.767 -1.04017,0.89575 z"
     id="path8305"
     inkscape:connector-curvature="0"
     sodipodi:nodetypes="ssccscssssccsssscssssssssssssssccsscccsccsccccssssscscsscssscsssssscccccsssssccssscccssssssscscccsscssssssscsscssssssssssssscssssssssssssssssscsssccssssssssssssscsscssssssssssssssccscsccsssscccscscscssccscccsccsscscsscssscss"
     inkscape:export-xdpi="898.78998"
     inkscape:export-ydpi="898.78998" />
</svg>
